<?xml version="1.0" encoding="utf-8"?>
<!-- Svg Vector Icons : http://www.onlinewebfonts.com/icon -->
<!DOCTYPE svg PUBLIC "-//W3C//DTD SVG 1.1//EN" "http://www.w3.org/Graphics/SVG/1.1/DTD/svg11.dtd">
<svg version="1.1" xmlns="http://www.w3.org/2000/svg" xmlns:xlink="http://www.w3.org/1999/xlink" x="0px" y="0px" viewBox="0 0 1000 1000" enable-background="new 0 0 1000 1000" xml:space="preserve">
<metadata> Svg Vector Icons : http://www.onlinewebfonts.com/icon </metadata>
<g><g transform="matrix(1 0 0 -1 0 1920)"><path d="M363.3,1773.3c-9.3,0-17.4,3.4-24.1,10.1c-6.7,6.7-10.1,14.8-10.1,24.1c0,0.9,0.1,2.3,0.2,4.1c0.1,1.8,0.8,5.9,2.1,12.3c1.3,6.4,3,13.2,5.1,20.5c2.2,7.3,5.6,16.9,10.3,28.7c4.7,11.9,10.2,24.2,16.6,36.9c10-20.3,17.9-39,23.6-56.1c5.7-17.1,8.9-29.2,9.6-36.2l1-10.3c0-9.3-3.4-17.4-10.1-24.1C380.6,1776.6,372.6,1773.3,363.3,1773.3z M636.7,1773.3c-9.3,0-17.4,3.4-24.1,10.1c-6.7,6.7-10.1,14.8-10.1,24.1c0,0.9,0.1,2.3,0.2,4.1c0.1,1.8,0.8,5.9,2.1,12.3c1.3,6.4,3,13.2,5.1,20.5c2.2,7.3,5.6,16.9,10.3,28.7c4.7,11.9,10.2,24.2,16.6,36.9c10-20.3,17.9-39,23.6-56.1c5.7-17.1,8.9-29.2,9.6-36.2l1-10.3c0-9.3-3.4-17.4-10.1-24.1C654.1,1776.6,646.1,1773.3,636.7,1773.3z M260.7,1704.9c-9.3,0-17.4,3.4-24.1,10.1c-6.7,6.7-10.1,14.8-10.1,24.1c0,0.9,0.1,2.3,0.2,4.1c0.1,1.8,0.8,5.9,2.1,12.3c1.3,6.4,3,13.2,5.1,20.5c2.2,7.3,5.6,16.9,10.3,28.7c4.7,11.8,10.2,24.2,16.6,36.9c10-20.3,17.9-39,23.6-56.1c5.7-17.1,8.9-29.2,9.6-36.2l1-10.3c0-9.3-3.4-17.4-10.1-24.1C278.1,1708.3,270.1,1704.9,260.7,1704.9z M500,1704.9c-9.3,0-17.4,3.4-24.1,10.1c-6.7,6.7-10.1,14.8-10.1,24.1c0,0.9,0.1,2.3,0.2,4.1c0.1,1.8,0.8,5.9,2.1,12.3c1.3,6.4,3,13.2,5.1,20.5c2.2,7.3,5.6,16.9,10.3,28.7c4.7,11.8,10.2,24.2,16.6,36.9c10-20.3,17.9-39,23.6-56.1c5.7-17.1,8.9-29.2,9.6-36.2l1-10.3c0-9.3-3.4-17.4-10.1-24.1C517.4,1708.3,509.3,1704.9,500,1704.9z M739.3,1704.9c-9.3,0-17.4,3.4-24.1,10.1c-6.7,6.7-10.1,14.8-10.1,24.1c0,0.9,0.1,2.3,0.2,4.1c0.1,1.8,0.8,5.9,2.1,12.3c1.3,6.4,3,13.2,5.1,20.5c2.2,7.3,5.6,16.9,10.3,28.7c4.7,11.8,10.2,24.2,16.6,36.9c10-20.3,17.9-39,23.6-56.1c5.7-17.1,8.9-29.2,9.6-36.2l1-10.3c0-9.3-3.4-17.4-10.1-24.1C756.7,1708.3,748.6,1704.9,739.3,1704.9z M500.3,1069.1c-3.2,4.1-7,9.9-11.5,17.4c-4.4,7.5-8.5,14.2-12.3,20.2c-3.8,5.9-8.1,11.9-13,17.9c-4.9,6-10.5,10.9-16.7,14.5c-6.3,3.6-12.9,5.8-20,6.5c-1.6,0.2-3.3,0.3-5.1,0.3c-8,0-16.1-2.4-24.4-7.3c-8.3-4.9-15.1-10.1-20.3-15.6c-5.2-5.5-11.6-12.8-19.1-21.9s-13-15.4-16.4-18.8c-2.7,5-6,12.4-9.7,22.2c-3.8,9.8-7.1,18.2-10.1,25.1s-7.2,14.1-12.8,21.4c-5.6,7.3-11.9,12.6-19,16.1c-6.2,3-12.6,4.4-19.5,4.4c-7.1,0-14.8-1.8-23.1-5.5c-8.3-3.6-15.3-7.6-21-12c-5.7-4.3-12.7-9.9-21-16.6c-8.3-6.7-14.3-11.4-17.9-14.2c-1.6,5.7-3.4,15.1-5.5,28.2c-2.1,13.1-4.7,24.5-7.9,34.2c-3.2,9.7-7.7,17.9-13.7,24.8c-6.4,7.3-16.5,10.9-30.4,10.9c-18.9,0-43.6-6.7-74.2-20.2v161.7h2.1c5,18,19,35.1,41.9,51.3c22.9,16.2,53.8,30.6,92.8,43.4v42c1.1,2.1,2.7,4.8,4.8,8.4s6,9.1,12,16.6c5.9,7.5,11.7,13.1,17.4,16.7v112.1c0,4.8,1.7,8.8,5,12.1c3.3,3.3,7.3,5,12.1,5h34.2c4.8,0,8.8-1.7,12.1-5c3.3-3.3,5-7.3,5-12.1v-82c11.8,3.6,23.2,6.7,34.2,9.2V1722c0,4.8,1.7,8.8,5,12.1c3.3,3.3,7.3,5,12.1,5h34.2c4.8,0,8.8-1.7,12.1-5c3.3-3.3,5-7.3,5-12.1v-129.9c22.6,2.7,45.3,4.6,68.4,5.5v56.1c0,4.8,1.7,8.8,5,12.1c3.3,3.3,7.3,5,12.1,5h34.2c4.8,0,8.8-1.7,12.1-5c3.3-3.3,5-7.3,5-12.1v-56.1c23.2-0.9,46-2.7,68.4-5.5V1722c0,4.8,1.7,8.8,5,12.1c3.3,3.3,7.3,5,12.1,5h34.2c4.8,0,8.8-1.7,12.1-5c3.3-3.3,5-7.3,5-12.1v-141.2c10.9-2.5,22.3-5.6,34.2-9.2v82c0,4.8,1.7,8.8,5,12.1c3.3,3.3,7.3,5,12.1,5h34.2c4.8,0,8.8-1.7,12.1-5c3.3-3.3,5-7.3,5-12.1v-112.1c3.6-2.3,7.3-5.3,10.9-9.1c3.6-3.8,6.8-7.5,9.4-11.1c2.6-3.6,5-7.1,7.2-10.4c2.2-3.3,3.8-6,5-8l1.7-3.1v-46.5c17.8-6.4,34-13,48.7-19.8c14.7-6.8,28.2-14.1,40.5-21.7c12.3-7.6,22.4-15.6,30.3-23.9c7.9-8.3,12.9-16.6,15.2-24.8h2.1v-162c-2.1,0.9-4.6,2.1-7.7,3.6c-3.1,1.5-5.9,2.8-8.5,4.1c-2.6,1.3-5.5,2.6-8.7,4.1c-3.2,1.5-6.2,2.8-9.1,3.9c-2.8,1.1-5.9,2.3-9.2,3.4c-3.3,1.1-6.4,2.1-9.4,2.7c-3,0.7-6,1.3-9.2,1.7c-3.2,0.5-6.3,0.7-9.2,0.7c-13.4,0-24.6-4.9-33.5-14.7c-5.9-6.8-10.5-14.9-13.7-24.3c-3.2-9.3-5.9-21-8-35c-2.2-14-3.8-23.2-5-27.5c-4.3,2.7-10.5,7.3-18.5,13.7c-8,6.4-14.9,11.8-20.9,16.2c-5.9,4.4-13,8.5-21.2,12.3c-8.2,3.8-15.8,5.6-22.9,5.6c-6.8,0-13.3-1.5-19.5-4.4c-7.1-3.4-13.4-8.8-19.1-16.1c-5.7-7.3-10-14.2-12.8-20.8c-2.8-6.6-6.2-15.1-10.1-25.5c-3.9-10.4-6.9-17.8-9.2-22.4c-3.9,3.6-8.7,8.8-14.4,15.4c-5.7,6.6-10.8,12.4-15.4,17.3c-4.6,4.9-9.7,9.9-15.6,14.9c-5.8,5-12.1,8.9-18.8,11.6c-6.7,2.7-13.8,4.1-21.4,4.1c-5.9-0.5-11.6-2.1-17.1-5c-5.5-2.8-10.2-6.3-14.2-10.3c-4-4-8.1-8.8-12.3-14.5c-4.2-5.7-7.7-10.9-10.6-15.7c-2.8-4.8-6.1-10.3-9.7-16.4C505.9,1077.7,502.8,1072.8,500.3,1069.1z M500,1424.6c62.2,0,118.5,6.2,168.9,18.5c6.6,1.6,14.2,3.6,22.9,6.2c8.7,2.5,19.7,6.2,33.2,10.9c13.4,4.8,24.7,10.3,33.7,16.4c9,6.2,13.5,12.2,13.5,18.1c0,3.2-1.6,6.4-4.8,9.6c-3.2-3-6.8-4.4-10.9-4.4h-34.2c-4.8,0-8.8,1.7-12.1,5c-3.3,3.3-5,7.3-5,12.1v19.1c-9.8,3.2-21.2,6.4-34.2,9.6v-28.7c0-4.8-1.7-8.8-5-12.1c-3.3-3.3-7.3-5-12.1-5h-34.2c-4.8,0-8.8,1.7-12.1,5c-3.3,3.3-5,7.3-5,12.1v41c-22.3,2.7-45.1,4.6-68.4,5.5v-80.7c0-4.8-1.7-8.8-5-12.1c-3.3-3.3-7.3-5-12.1-5h-34.2c-4.8,0-8.8,1.7-12.1,5c-3.3,3.3-5,7.3-5,12.1v80.7c-23-0.9-45.8-2.7-68.4-5.5v-6.8c0-4.8-1.7-8.8-5-12.1c-3.3-3.3-7.3-5-12.1-5h-34.2c-2.5,0-4.8,0.5-7,1.5c-2.2,1-4,2.4-5.6,4.3c-1.6,1.8-2.7,3.9-3.4,6.2c-12.8-3.2-24.5-6.5-35.2-9.9v-19.1c0-4.8-1.7-8.8-5-12.1c-3.3-3.3-7.3-5-12.1-5h-34.2c-1.4,0-3,0.3-4.8,1c-1.8,0.7-3.3,1.4-4.4,2.1l-1.7,1.4c-3.2-3.2-4.8-6.4-4.8-9.6c0-4.8,3.2-9.7,9.7-14.9c6.5-5.1,14-9.6,22.4-13.3c8.4-3.8,18.2-7.5,29.2-11.1c11.1-3.6,19.6-6.3,25.6-8c6-1.7,11.6-3.1,16.6-4.3C381.8,1430.8,438,1424.6,500,1424.6z M500,1247.9c31.2,0,60.4,0.9,87.7,2.6c27.2,1.7,55.9,4.6,86,8.5c30.1,4,59.4,10,88,18.1c28.6,8.1,55.4,17.9,80.5,29.6c0.5,0.2,2.6,1.2,6.3,2.9l7.5,3.4c0,0,2.4,1.3,7.3,3.8c4.9,2.5,7.5,4,7.9,4.6c0.3,0.6,2.6,2.1,6.8,4.6c4.2,2.5,6.4,4.3,6.7,5.5c0.2,1.1,1.8,3.1,4.6,5.8c2.8,2.7,4,5,3.4,6.7c0.9,3-0.9,6.7-5.5,11.1c-4.6,4.4-10.8,8.9-18.8,13.5c-8,4.6-15.6,8.7-22.7,12.5c-7.2,3.8-14.5,7.4-22,10.8c-7.5,3.4-11.5,5.2-12,5.5h-17.4c-13.2-11.6-28.7-21.1-46.5-28.4c-17.8-7.3-38.9-14.2-63.2-20.9c-57.9-15.7-119.4-23.6-184.6-23.6s-126.7,7.9-184.6,23.6c-24.2,6.6-45.2,13.6-63.1,20.9c-17.9,7.3-33.4,16.7-46.7,28.4h-17.4c-0.5-0.2-4.4-2.1-12-5.6c-7.5-3.5-14.9-7.1-22-10.8c-7.2-3.6-14.8-7.8-22.9-12.5c-8.1-4.7-14.4-9.2-18.8-13.7c-4.4-4.4-6.2-8.3-5.3-11.5c0.7-2.1,1.8-4.2,3.4-6.5c1.6-2.3,3.1-4.2,4.6-5.8c1.5-1.6,3.7-3.4,6.7-5.5c3-2.1,5.2-3.6,6.8-4.8c1.6-1.1,4.3-2.6,8-4.4s6.2-3,7.3-3.6c1.1-0.6,3.6-1.8,7.5-3.6s5.9-2.7,6.2-2.7c25.1-11.6,52-21.4,80.7-29.4c28.7-8,58.1-14,88-17.9c30-4,58.6-6.8,85.8-8.5C439.6,1248.7,468.8,1247.9,500,1247.9z M500,930c-120.3,0-223.7,14-310,42c-8.2,2.7-15.4,5.2-21.7,7.3c-6.3,2.2-14.4,5.4-24.4,9.6c-10,4.2-18.7,8.3-26,12.1c-7.3,3.9-15.1,8.7-23.4,14.5c-8.3,5.8-15.1,11.7-20.3,17.8c-5.2,6-9.6,12.9-13.2,20.7c-3.5,7.7-5.3,15.8-5.3,24.3v64.6l3.1,1c6.2,1.8,12.9,4.4,20.2,7.7c7.3,3.3,14.6,6.7,22,10.3c7.4,3.5,14.1,6.2,20,8c1.8-5.7,3.7-14.1,5.6-25.1c1.9-11.1,3.7-20.6,5.3-28.5c1.6-8,4.7-16.2,9.2-24.8c4.6-8.5,10.5-15.1,17.8-19.7c7.1-4.3,14.6-6.5,22.6-6.5c7.3,0,15.2,1.9,23.6,5.8s15.7,8.2,21.9,13c6.2,4.8,13.3,10.4,21.4,16.9c8.1,6.5,14.3,11.1,18.6,13.8c3-5.2,6.5-13.1,10.6-23.6c4.1-10.5,7.7-19.4,10.8-26.8c3.1-7.4,7.7-14.8,13.8-22.2c6.2-7.4,13.2-12.6,21.2-15.6c5.2-2.1,10.5-3.1,15.7-3.1c8,0,16.2,2.5,24.6,7.5c8.4,5,15.4,10.5,20.9,16.6c5.5,6,12,13.4,19.7,22.2c7.6,8.8,13.4,15,17.3,18.6c3.4-4.3,7.5-10.4,12.1-18.1c4.7-7.7,9.1-14.8,13.2-21c4.1-6.3,8.7-12.5,13.8-18.8c5.1-6.3,11.1-11.2,17.8-14.9c6.7-3.6,14-5.5,21.7-5.5c7.5,0,14.6,1.8,21.4,5.3c6.7,3.5,12.7,8.4,17.9,14.7c5.2,6.3,9.9,12.5,13.8,18.8c4,6.3,8.4,13.3,13.2,21.2c4.8,7.9,8.8,14,12,18.3c3-2.7,6.3-6.2,10.1-10.3c3.8-4.1,7.2-8.1,10.4-12c3.2-3.9,6.7-7.9,10.6-12.1c3.9-4.2,7.7-8.1,11.5-11.6c3.8-3.5,7.7-6.8,12-9.7c4.2-3,8.7-5.2,13.5-6.8c4.8-1.6,9.7-2.4,14.7-2.4c7.3,0,14.1,1.6,20.3,4.8c6.3,3.2,11.4,7.1,15.4,11.8c4,4.7,7.8,10.5,11.4,17.4c3.6,7,6.6,13.4,8.9,19.5c2.3,6,4.9,12.8,7.9,20.2c3,7.4,5.6,13.3,7.9,17.6c2.1-1.1,5.1-3.2,9.2-6.3c4.1-3.1,7.7-5.9,10.9-8.4l4.8-3.8c26.2-20.5,47.3-30.8,63.2-30.8c12.8,0,23.4,5.6,31.8,16.7c5.7,7.3,10,15.8,13,25.6c3,9.8,5.4,21,7.3,33.7c1.9,12.6,3.8,22,5.6,28.2c6.4-2.1,15-5.3,26-9.7c10.9-4.4,20.3-8.5,28-12.1l11.6-5.1v-64.6c0-8-1.6-15.7-4.8-23.2c-3.2-7.5-7.3-14.2-12.3-20c-5-5.8-11.3-11.5-19-17.1c-7.6-5.6-14.9-10.4-21.9-14.4c-6.9-4-15-8-24.3-12c-9.2-4-16.9-7.1-22.9-9.4c-6-2.3-12.9-4.8-20.7-7.5C731.3,944.9,625.1,930,500,930z"/></g></g>
</svg>